 <svg xmlns="http://www.w3.org/2000/svg" class="mb-2" width="43.453"
                                            height="43.784" viewBox="0 0 43.453 43.784">
                                            <g id="Group_106589" data-name="Group 106589"
                                                transform="translate(-935.999 -641.592)">
                                                <path id="Path_85140" data-name="Path 85140"
                                                    d="M161.978,32.484h.182V27.923a2.688,2.688,0,0,0-2.737-2.737H141.272a.83.83,0,0,1-.73-.365L138.9,22.633a2.721,2.721,0,0,0-2.189-1.095H126.586a2.688,2.688,0,0,0-2.736,2.737v8.209h38.128Z"
                                                    transform="translate(814.721 620.054)" fill="#ccc" />
                                                <path id="Path_85141" data-name="Path 85141"
                                                    d="M136.194,173.222a2.93,2.93,0,0,0-2.007-.912H96.241a2.929,2.929,0,0,0-2.007.912,2.605,2.605,0,0,0-.73,2.1l1.459,15.233h40.5l1.459-15.233a2.5,2.5,0,0,0-.73-2.1Z"
                                                    transform="translate(842.512 482.053)" fill="#ccc" />
                                                <path id="Path_85142" data-name="Path 85142"
                                                    d="M118.732,476.851a2.835,2.835,0,0,0,2.737,2.463h33.2a2.765,2.765,0,0,0,2.737-2.463l.274-3.01H118.459Z"
                                                    transform="translate(819.656 206.062)" fill="#ccc" />
                                                <path id="Path_85143" data-name="Path 85143"
                                                    d="M113.354,412.881h39.588l.274-3.649H113.081Z"
                                                    transform="translate(824.579 265.198)" fill="#ccc" />
                                            </g>
                                        </svg>