<svg xmlns="http://www.w3.org/2000/svg" width="237.33" height="62.813" viewBox="0 0 237.33 62.813"><g transform="translate(50 41.865)"><path d="M17.885,21.955a1.024,1.024,0,0,1-.475-.117l-5.2-2.735L7,21.838a1.021,1.021,0,0,1-1.481-1.076l.994-5.793-4.209-4.1a1.021,1.021,0,0,1,.566-1.741l5.817-.845,2.6-5.271a1.063,1.063,0,0,1,1.831,0l2.6,5.271,5.817.845a1.021,1.021,0,0,1,.566,1.741l-4.209,4.1.994,5.793a1.021,1.021,0,0,1-1.006,1.193Z" transform="translate(-52 -1.007)" fill="#ffd500"/><path d="M27.625,33.892a1.651,1.651,0,0,1-.766-.189l-8.393-4.412L10.073,33.7a1.647,1.647,0,0,1-2.389-1.736l1.6-9.346L2.5,16A1.647,1.647,0,0,1,3.41,13.2l9.383-1.364,4.2-8.5a1.715,1.715,0,0,1,2.954,0l4.2,8.5,9.383,1.364A1.647,1.647,0,0,1,34.435,16l-6.79,6.618,1.6,9.346a1.647,1.647,0,0,1-1.623,1.925Z" transform="translate(-25.815 -12.944)" fill="#ffd500"/><path d="M33.77,41.424a2.047,2.047,0,0,1-.95-.234L22.415,35.719,12.009,41.19a2.042,2.042,0,0,1-2.963-2.152l1.988-11.587-8.418-8.2a2.042,2.042,0,0,1,1.131-3.483l11.634-1.691,5.2-10.541a2.127,2.127,0,0,1,3.662,0l5.2,10.541,11.634,1.691a2.042,2.042,0,0,1,1.131,3.483l-8.418,8.2,1.988,11.587a2.041,2.041,0,0,1-2.013,2.386Z" transform="translate(12.194 -20.476)" fill="#ffd500"/><path d="M45.074,55.277a2.775,2.775,0,0,1-1.288-.318L29.678,47.543,15.57,54.959a2.768,2.768,0,0,1-4.016-2.918l2.695-15.709L2.835,25.209a2.769,2.769,0,0,1,1.534-4.722l15.773-2.292L27.2,3.9a2.883,2.883,0,0,1,4.965,0l7.053,14.292,15.773,2.292a2.769,2.769,0,0,1,1.534,4.722L45.107,36.332,47.8,52.041a2.768,2.768,0,0,1-2.729,3.236Z" transform="translate(58.65 -34.329)" fill="#ffd500"/><path d="M53.25,65.3a3.3,3.3,0,0,1-1.532-.378L34.932,56.1,18.146,64.92a3.294,3.294,0,0,1-4.779-3.472l3.206-18.691L2.994,29.522A3.294,3.294,0,0,1,4.819,23.9l18.767-2.727,8.392-17a3.431,3.431,0,0,1,5.908,0l8.392,17L65.045,23.9a3.294,3.294,0,0,1,1.825,5.618L53.291,42.757,56.5,61.449A3.293,3.293,0,0,1,53.25,65.3Z" transform="translate(119.465 -44.351)" fill="#ffd500"/></g></svg>